<svg width="39" height="38" viewBox="0 0 39 38" fill="none" xmlns="http://www.w3.org/2000/svg">
<path d="M19.3701 23.021C24.8028 23.021 29.4416 23.8823 29.4416 27.3288C29.4416 30.7739 24.8326 31.6666 19.3701 31.6666C13.9374 31.6666 9.29865 30.8053 9.29865 27.3602C9.29865 23.9136 13.9077 23.021 19.3701 23.021ZM28.0564 20.9456C30.1333 20.9071 32.3662 21.1923 33.1914 21.3948C34.9394 21.7385 36.0892 22.44 36.5655 23.4596C36.9682 24.2966 36.9682 25.2677 36.5655 26.1033C35.8368 27.6847 33.4877 28.1924 32.5747 28.3236C32.3861 28.3521 32.2344 28.1881 32.2542 27.9984C32.7207 23.6165 29.0105 21.5388 28.0507 21.0611C28.0096 21.0398 28.0011 21.007 28.0053 20.987C28.0082 20.9727 28.0252 20.9499 28.0564 20.9456ZM10.4553 20.9427L10.8464 20.9462C10.8776 20.9505 10.8932 20.9733 10.896 20.9861C10.9003 21.0075 10.8917 21.0389 10.852 21.0617C9.89083 21.5394 6.18066 23.617 6.64709 27.9976C6.66694 28.1887 6.51666 28.3512 6.3281 28.3241C5.41509 28.1929 3.06593 27.6853 2.33722 26.1039C1.93317 25.2669 1.93317 24.2972 2.33722 23.4602C2.81357 22.4406 3.96193 21.739 5.70998 21.394C6.53651 21.1929 8.768 20.9077 10.8464 20.9462L10.4553 20.9427ZM19.3701 6.33325C23.069 6.33325 26.0348 9.31351 26.0348 13.0353C26.0348 16.7556 23.069 19.7387 19.3701 19.7387C15.6713 19.7387 12.7054 16.7556 12.7054 13.0353C12.7054 9.31351 15.6713 6.33325 19.3701 6.33325ZM28.4179 7.45092C31.9906 7.45092 34.7962 10.8319 33.8407 14.5978C33.1956 17.1332 30.8606 18.8173 28.2591 18.7488C27.9982 18.7417 27.7416 18.7174 27.4935 18.6747C27.3135 18.6433 27.2228 18.4394 27.3248 18.2882C28.3172 16.8195 28.8829 15.0527 28.8829 13.1562C28.8829 11.177 28.2648 9.33176 27.1916 7.81882C27.1575 7.77176 27.132 7.69904 27.166 7.64485C27.1944 7.60065 27.2469 7.57783 27.2965 7.56642C27.658 7.49227 28.0294 7.45092 28.4179 7.45092ZM10.4827 7.45078C10.8712 7.45078 11.2426 7.49213 11.6056 7.56628C11.6538 7.57769 11.7076 7.60193 11.736 7.64471C11.7686 7.69889 11.7445 7.77162 11.7105 7.81868C10.6373 9.33162 10.0191 11.1768 10.0191 13.156C10.0191 15.0526 10.5848 16.8193 11.5772 18.2881C11.6793 18.4392 11.5886 18.6431 11.4085 18.6745C11.159 18.7187 10.9038 18.7415 10.6429 18.7487C8.04142 18.8171 5.70643 17.1331 5.06137 14.5977C4.10441 10.8317 6.91008 7.45078 10.4827 7.45078Z" fill="url(#paint0_linear_1434_850)"/>
<defs>
<linearGradient id="paint0_linear_1434_850" x1="2.03418" y1="6.33325" x2="26.1351" y2="39.472" gradientUnits="userSpaceOnUse">
<stop stop-color="#F9EC7D"/>
<stop offset="1" stop-color="#F5B100"/>
</linearGradient>
</defs>
</svg>
