<svg width="38" height="39" viewBox="0 0 38 39" fill="none" xmlns="http://www.w3.org/2000/svg">
<path d="M13.1094 4.77197C14.1069 4.80231 15.0727 4.97648 16.0085 5.29473H16.1019C16.1652 5.32481 16.2127 5.35806 16.2444 5.38814C16.5943 5.50056 16.9252 5.62723 17.2419 5.80139L17.8435 6.07056C18.081 6.19723 18.366 6.43314 18.5244 6.52973C18.6827 6.62314 18.8569 6.71973 18.9994 6.82898C20.7585 5.48473 22.8944 4.75639 25.0952 4.77197C26.0943 4.77197 27.0918 4.91314 28.0402 5.23139C33.8843 7.13139 35.9901 13.5439 34.231 19.1489C33.2335 22.0131 31.6027 24.6272 29.4668 26.7631C26.4094 29.724 23.0543 32.3523 19.4427 34.6165L19.0469 34.8556L18.6352 34.6006C15.011 32.3523 11.6369 29.724 8.55096 26.7473C6.42929 24.6114 4.79688 22.0131 3.78354 19.1489C1.99437 13.5439 4.10021 7.13139 10.0076 5.19814C10.4668 5.03981 10.9402 4.92898 11.4152 4.86723H11.6052C12.0501 4.80231 12.4919 4.77197 12.9352 4.77197H13.1094ZM27.2169 9.77556C26.5677 9.55231 25.8552 9.90223 25.6177 10.5672C25.396 11.2322 25.7444 11.9606 26.4094 12.1965C27.4243 12.5765 28.1035 13.5756 28.1035 14.6823V14.7314C28.0735 15.094 28.1827 15.4439 28.4044 15.7131C28.626 15.9822 28.9585 16.139 29.3069 16.1722C29.956 16.1548 30.5102 15.6339 30.5577 14.9673V14.7789C30.6052 12.5606 29.261 10.5514 27.2169 9.77556Z" fill="url(#paint0_linear_1434_861)"/>
<defs>
<linearGradient id="paint0_linear_1434_861" x1="3.16602" y1="4.77173" x2="33.2103" y2="36.3971" gradientUnits="userSpaceOnUse">
<stop stop-color="#8482FF"/>
<stop offset="1" stop-color="#7723FE"/>
</linearGradient>
</defs>
</svg>
