<svg width="20" height="20" viewBox="0 0 20 20" fill="none" xmlns="http://www.w3.org/2000/svg">
<path d="M10 1.25073C11.9891 1.25073 13.8968 2.04091 15.3033 3.44743C16.7098 4.85395 17.5 6.76161 17.5 8.75073C17.5 12.3345 15.0812 15.6332 10.335 18.6532C10.2348 18.7168 10.1186 18.7506 10 18.7506C9.88135 18.7506 9.76516 18.7168 9.665 18.6532C4.91875 15.6332 2.5 12.3345 2.5 8.75073C2.5 6.76161 3.29018 4.85395 4.6967 3.44743C6.10322 2.04091 8.01087 1.25073 10 1.25073V1.25073ZM10 6.25073C9.33696 6.25073 8.70107 6.51412 8.23223 6.98296C7.76339 7.45181 7.5 8.08769 7.5 8.75073C7.5 9.41377 7.76339 10.0497 8.23223 10.5185C8.70107 10.9873 9.33696 11.2507 10 11.2507C10.663 11.2507 11.2989 10.9873 11.7678 10.5185C12.2366 10.0497 12.5 9.41377 12.5 8.75073C12.5 8.08769 12.2366 7.45181 11.7678 6.98296C11.2989 6.51412 10.663 6.25073 10 6.25073V6.25073Z" fill="white"/>
</svg>
