<svg viewBox="0 0 711.071 705.07" xml:space="preserve" xmlns="http://www.w3.org/2000/svg"><circle cx="353.45" cy="-448.488" fill="#1f2431" r="322.668" class="fill-111111"></circle><circle cx="350.024" cy="358.949" fill="#1f2431" r="322.668" class="fill-111111"></circle><circle cx="-433.479" cy="-448.559" fill="#1f2431" r="322.668" class="fill-111111"></circle><circle cx="1147.593" cy="-448.629" fill="#1f2431" r="322.668" class="fill-111111"></circle><circle cx="2712.807" cy="-444.84" fill="#1f2431" r="322.668" class="fill-111111"></circle><circle cx="1917.735" cy="-452.77" fill="#1f2431" r="322.668" class="fill-111111"></circle><circle cx="-1237.336" cy="-452.699" fill="#1f2431" r="322.668" class="fill-111111"></circle><path d="M-1324.092-275.512h-85.765v-256.104h85.765v256.104zm119.117 0h-85.765V-466.1h85.765v190.588zm119.118 0h-85.765v-354.375h85.765v354.375zM403.227 390.782c-42.528 60.957-48.671 112.464-48.671 112.464-.945 4.252-4.725 4.252-5.67 0 0 0-8.033-51.507-49.616-112.464-34.495-48.198-50.088-67.1-50.088-106.32 0-56.231 44.891-101.122 101.595-101.122 56.232 0 102.541 44.891 102.541 101.122-.003 39.221-30.245 77.496-50.091 106.32zM390.94 286.353c0-21.736-17.011-38.748-39.22-38.748-20.792 0-38.275 17.012-38.275 38.748s17.484 40.165 38.275 40.165c22.209 0 39.22-18.429 39.22-40.165z" fill="#F4B300" class="fill-f4b300"></path><circle cx="3463.953" cy="-444.98" fill="#1f2431" r="322.668" class="fill-111111"></circle><circle cx="-2048.118" cy="-444.91" fill="#1f2431" r="322.668" class="fill-111111"></circle><circle cx="4266.024" cy="-445.051" fill="#1f2431" r="322.668" class="fill-111111"></circle></svg>