<svg width="14" height="14" viewBox="0 0 14 14" fill="none" xmlns="http://www.w3.org/2000/svg">
<path d="M10.9446 8.54675C10.7719 8.71408 10.6926 8.95608 10.7319 9.19342L11.3246 12.4734C11.3746 12.7514 11.2573 13.0328 11.0246 13.1934C10.7966 13.3601 10.4933 13.3801 10.2446 13.2468L7.29195 11.7067C7.18928 11.6521 7.07528 11.6228 6.95862 11.6194H6.77795C6.71528 11.6288 6.65395 11.6487 6.59795 11.6794L3.64462 13.2268C3.49862 13.3001 3.33328 13.3261 3.17128 13.3001C2.77662 13.2254 2.51328 12.8494 2.57795 12.4528L3.17128 9.17275C3.21062 8.93342 3.13128 8.69008 2.95862 8.52008L0.551282 6.18675C0.349948 5.99142 0.279948 5.69808 0.371948 5.43342C0.461282 5.16942 0.689282 4.97675 0.964615 4.93342L4.27795 4.45275C4.52995 4.42675 4.75128 4.27342 4.86462 4.04675L6.32462 1.05341C6.35928 0.986748 6.40395 0.925415 6.45795 0.873415L6.51795 0.826748C6.54928 0.792081 6.58528 0.763415 6.62528 0.740081L6.69795 0.713415L6.81128 0.666748H7.09195C7.34262 0.692748 7.56328 0.842748 7.67862 1.06675L9.15795 4.04675C9.26462 4.26475 9.47195 4.41608 9.71128 4.45275L13.0246 4.93342C13.3046 4.97342 13.5386 5.16675 13.6313 5.43342C13.7186 5.70075 13.6433 5.99408 13.4379 6.18675L10.9446 8.54675Z" fill="white"/>
</svg>
