<svg width="39" height="39" viewBox="0 0 39 39" fill="none" xmlns="http://www.w3.org/2000/svg">
<path d="M26.6011 5.63037C32.0619 5.63037 35.2848 8.77264 35.2848 14.1516H28.5856V14.2064C25.4764 14.2064 22.9559 16.6638 22.9559 19.6951C22.9559 22.7264 25.4764 25.1838 28.5856 25.1838H35.2848V25.6778C35.2848 30.9881 32.0619 34.1304 26.6011 34.1304H12.3019C6.84113 34.1304 3.61816 30.9881 3.61816 25.6778V14.0829C3.61816 8.77264 6.84113 5.63037 12.3019 5.63037H26.6011ZM34.1026 16.5117C34.7555 16.5117 35.2848 17.0277 35.2848 17.6643V21.6711C35.2772 22.3045 34.7524 22.8163 34.1026 22.8237H28.7122C27.1382 22.8443 25.7619 21.7936 25.4048 20.2989C25.226 19.371 25.477 18.4135 26.0905 17.683C26.704 16.9526 27.6173 16.5238 28.5856 16.5117H34.1026ZM29.3456 18.3641H28.8248C28.5051 18.3605 28.1972 18.4817 27.9698 18.7008C27.7424 18.92 27.6145 19.2187 27.6145 19.5305C27.6144 20.1845 28.1541 20.7167 28.8248 20.7243H29.3456C30.014 20.7243 30.5559 20.1959 30.5559 19.5442C30.5559 18.8925 30.014 18.3641 29.3456 18.3641ZM20.0567 11.7914H11.1196C10.4566 11.7914 9.91699 12.3114 9.90928 12.9578C9.90928 13.6118 10.4489 14.144 11.1196 14.1516H20.0567C20.7252 14.1516 21.2671 13.6232 21.2671 12.9715C21.2671 12.3198 20.7252 11.7914 20.0567 11.7914Z" fill="url(#paint0_linear_1434_839)"/>
<defs>
<linearGradient id="paint0_linear_1434_839" x1="3.61816" y1="5.63037" x2="31.9607" y2="37.1221" gradientUnits="userSpaceOnUse">
<stop stop-color="#8482FF"/>
<stop offset="1" stop-color="#7723FE"/>
</linearGradient>
</defs>
</svg>
